<svg width="18" height="18" viewBox="0 0 18 18" fill="none" xmlns="http://www.w3.org/2000/svg">
<path fill-rule="evenodd" clip-rule="evenodd" d="M4.44629 6.00078H3.64286C2.45939 6.00078 1.5 6.96017 1.5 8.14364V14.3579C1.5 15.5414 2.45939 16.5008 3.64286 16.5008H14.3571C15.5406 16.5008 16.5 15.5414 16.5 14.3579V8.14364C16.5 6.96017 15.5406 6.00078 14.3571 6.00078H13.5534V5.25084C13.5534 2.73597 11.5147 0.697266 8.99986 0.697266C6.48499 0.697266 4.44629 2.73597 4.44629 5.25084V6.00078ZM6.05343 6.00078V5.25084C6.05343 3.62357 7.37259 2.30441 8.99986 2.30441C10.6271 2.30441 11.9463 3.62357 11.9463 5.25084V6.00078H6.05343ZM5.25 8.99998C5.25 8.40825 5.72969 7.92855 6.32143 7.92855C6.91316 7.92855 7.39286 8.40825 7.39286 8.99998V10.0714C7.39286 10.6631 6.91316 11.1428 6.32143 11.1428C5.72969 11.1428 5.25 10.6631 5.25 10.0714V8.99998ZM11.6787 7.92855C11.087 7.92855 10.6073 8.40825 10.6073 8.99998V10.0714C10.6073 10.6631 11.087 11.1428 11.6787 11.1428C12.2705 11.1428 12.7502 10.6631 12.7502 10.0714V8.99998C12.7502 8.40825 12.2705 7.92855 11.6787 7.92855Z" fill="#50A80A"/>
</svg>
