<svg width="18" height="18" viewBox="0 0 18 18" fill="none" xmlns="http://www.w3.org/2000/svg">
<path d="M14.4748 10.2867C15.211 8.43544 15.1738 6.35591 14.3596 4.54855L11.9017 4.50001C11.861 4.49921 11.8275 4.53183 11.8272 4.57252L11.8065 7.58765C11.8064 7.60719 11.8141 7.62597 11.8279 7.63979L14.4748 10.2867ZM14.4748 10.2867C14.1099 11.2044 13.555 12.0659 12.8105 12.8105C12.0659 13.555 11.2044 14.1099 10.2867 14.4748M10.2867 14.4748C8.43544 15.211 6.35591 15.1738 4.54855 14.3596L4.50001 11.9017C4.49921 11.861 4.53183 11.8275 4.57252 11.8272L7.58765 11.8065C7.60719 11.8064 7.62597 11.8141 7.63979 11.8279L10.2867 14.4748Z" stroke="#50A80A" stroke-width="1.5"/>
<path d="M2.25 2.25L8.25 8.25M8.25 8.25V3.75M8.25 8.25H3.75" stroke="#50A80A" stroke-width="1.5"/>
</svg>
