<svg width="30" height="30" viewBox="0 0 30 30" fill="none" xmlns="http://www.w3.org/2000/svg">
<path d="M14.7986 3.19456C18.6456 3.19456 19.1013 3.20925 20.6205 3.27853C22.0252 3.34255 22.7881 3.57713 23.2957 3.77434C23.9682 4.03556 24.4482 4.3476 24.9523 4.85147C25.4565 5.3554 25.7687 5.83509 26.0301 6.50725C26.2274 7.01466 26.4621 7.77713 26.5262 9.18111C26.5955 10.6995 26.6102 11.155 26.6102 14.9999C26.6102 18.8449 26.5955 19.3003 26.5262 20.8187C26.4621 22.2227 26.2274 22.9852 26.0301 23.4926C25.7687 24.1648 25.4565 24.6444 24.9524 25.1483C24.4482 25.6522 23.9682 25.9643 23.2957 26.2255C22.7881 26.4227 22.0252 26.6573 20.6205 26.7213C19.1015 26.7906 18.6459 26.8053 14.7986 26.8053C10.9514 26.8053 10.4958 26.7906 8.97675 26.7213C7.57203 26.6573 6.80916 26.4227 6.30148 26.2255C5.62898 25.9643 5.14903 25.6522 4.6449 25.1483C4.14076 24.6444 3.8285 24.1648 3.56714 23.4926C3.36983 22.9852 3.13512 22.2227 3.07107 20.8187C3.00175 19.3003 2.98705 18.8449 2.98705 14.9999C2.98705 11.155 3.00175 10.6995 3.07107 9.18111C3.13512 7.77713 3.36983 7.01466 3.56714 6.50725C3.8285 5.83509 4.1407 5.3554 4.6449 4.85153C5.14903 4.3476 5.62898 4.03556 6.30148 3.77434C6.80916 3.57713 7.57203 3.34255 8.97675 3.27853C10.496 3.20925 10.9517 3.19456 14.7986 3.19456ZM14.7986 0.599976C10.8858 0.599976 10.3951 0.616552 8.85842 0.686631C7.32491 0.756539 6.27758 0.999986 5.36115 1.35593C4.41373 1.72393 3.61026 2.21631 2.80925 3.01684C2.00829 3.81744 1.51565 4.62049 1.14752 5.56741C0.791333 6.48335 0.547758 7.53014 0.477814 9.06284C0.407699 10.5988 0.391113 11.0891 0.391113 14.9999C0.391113 18.9107 0.407699 19.4011 0.477814 20.937C0.547758 22.4697 0.791333 23.5165 1.14752 24.4324C1.51565 25.3794 2.00829 26.1824 2.80925 26.983C3.61026 27.7835 4.41373 28.2759 5.36115 28.6439C6.27758 28.9999 7.32491 29.2433 8.85842 29.3132C10.3951 29.3833 10.8858 29.3999 14.7986 29.3999C18.7115 29.3999 19.2021 29.3833 20.7388 29.3132C22.2723 29.2433 23.3196 28.9999 24.2361 28.6439C25.1835 28.2759 25.987 27.7835 26.788 26.983C27.5889 26.1824 28.0816 25.3794 28.4498 24.4324C28.8059 23.5165 29.0495 22.4697 29.1194 20.937C29.1895 19.4011 29.2061 18.9107 29.2061 14.9999C29.2061 11.0891 29.1895 10.5988 29.1194 9.06284C29.0495 7.53014 28.8059 6.48335 28.4498 5.56741C28.0816 4.62049 27.5889 3.81744 26.788 3.01684C25.987 2.21631 25.1835 1.72393 24.2361 1.35593C23.3196 0.999986 22.2723 0.756539 20.7388 0.686631C19.2021 0.616552 18.7115 0.599976 14.7986 0.599976Z" fill="white"/>
<path d="M14.8052 7.6123C10.7191 7.6123 7.40674 10.9229 7.40674 15.0068C7.40674 19.0908 10.7191 22.4014 14.8052 22.4014C18.8913 22.4014 22.2036 19.0908 22.2036 15.0068C22.2036 10.9229 18.8913 7.6123 14.8052 7.6123ZM14.8052 19.8069C12.1528 19.8069 10.0027 17.6578 10.0027 15.0068C10.0027 12.3559 12.1528 10.2069 14.8052 10.2069C17.4575 10.2069 19.6077 12.3559 19.6077 15.0068C19.6077 17.6578 17.4575 19.8069 14.8052 19.8069Z" fill="white"/>
<path d="M24.2249 7.31543C24.2249 8.26973 23.4508 9.0434 22.496 9.0434C21.5412 9.0434 20.7671 8.26973 20.7671 7.31543C20.7671 6.36107 21.5412 5.5874 22.496 5.5874C23.4508 5.5874 24.2249 6.36107 24.2249 7.31543Z" fill="white"/>
</svg>
