<svg width="21" height="21" viewBox="0 0 21 21" fill="none" xmlns="http://www.w3.org/2000/svg">
<path d="M17.9584 10.958L18.7936 11.219L18.7936 11.219L17.9584 10.958ZM16.7546 14.8103L15.9194 14.5493L15.9194 14.5493L16.7546 14.8103ZM7.4375 7.57422L8.06669 8.18229L7.83082 8.42634L7.49208 8.44751L7.4375 7.57422ZM10.8591 4.03386L10.2299 3.42579H10.2299L10.8591 4.03386ZM12.25 7.4375L12.3371 8.30816C12.0269 8.33917 11.7236 8.20284 11.541 7.95025C11.3583 7.69767 11.3238 7.36698 11.4504 7.08213L12.25 7.4375ZM14.8754 7.17496L14.7884 6.3043L14.8754 7.17496ZM13.4532 4.73037L14.2528 5.08574L13.4532 4.73037ZM3.44542 7.82372L3.39084 6.95043H3.39084L3.44542 7.82372ZM17.6003 8.46298L18.3284 7.97762V7.97762L17.6003 8.46298ZM1.75 15.75V8.69702H3.5V15.75H1.75ZM18.7936 11.219L17.5898 15.0713L15.9194 14.5493L17.1233 10.697L18.7936 11.219ZM6.80831 6.96615L10.2299 3.42579L11.4882 4.64193L8.06669 8.18229L6.80831 6.96615ZM12.1174 2.625H12.6536V4.375H12.1174V2.625ZM12.1629 6.56684L14.7884 6.3043L14.9625 8.04561L12.3371 8.30816L12.1629 6.56684ZM14.2528 5.08574L13.0496 7.79287L11.4504 7.08213L12.6536 4.375L14.2528 5.08574ZM3.39084 6.95043L6.94542 6.72827L7.05458 8.47486L3.5 8.69702L3.39084 6.95043ZM6.94542 6.72827L7.38292 6.70092L7.49208 8.44751L7.05458 8.47486L6.94542 6.72827ZM14.2863 17.5H7V15.75H14.2863V17.5ZM7 17.5H3.5V15.75H7V17.5ZM7.875 7.60156V16.625H6.125V7.60156H7.875ZM12.6536 2.625C13.92 2.625 14.7671 3.92849 14.2528 5.08574L12.6536 4.375V2.625ZM10.2299 3.42579C10.7245 2.914 11.4057 2.625 12.1174 2.625V4.375C11.8802 4.375 11.6531 4.47134 11.4882 4.64193L10.2299 3.42579ZM17.5898 15.0713C17.1382 16.5162 15.8001 17.5 14.2863 17.5V15.75C15.0347 15.75 15.6962 15.2636 15.9194 14.5493L17.5898 15.0713ZM18.3284 7.97762C18.9649 8.93241 19.1359 10.1237 18.7936 11.219L17.1233 10.697C17.3079 10.1061 17.2157 9.46344 16.8723 8.94834L18.3284 7.97762ZM16.8723 8.94834C16.4516 8.31738 15.7171 7.97016 14.9625 8.04561L14.7884 6.3043C16.187 6.16443 17.5487 6.80806 18.3284 7.97762L16.8723 8.94834ZM1.75 8.69702C1.75 7.77291 2.46853 7.00807 3.39084 6.95043L3.5 8.69702H3.5H1.75ZM3.5 15.75H3.5V17.5C2.5335 17.5 1.75 16.7165 1.75 15.75H3.5Z" fill="#50A80A"/>
</svg>
