<svg width="18" height="18" viewBox="0 0 18 18" fill="none" xmlns="http://www.w3.org/2000/svg">
<path d="M16.5107 15.3698L15.822 13.2364C15.7837 13.114 15.7952 12.9836 15.8526 12.869C16.3691 11.83 16.5833 10.6053 16.3614 9.31346C16.0171 7.3342 14.613 5.68679 12.7919 5.05469C13.2625 6.22802 13.404 7.53173 13.1707 8.82359C12.6924 11.4508 10.657 13.5367 8.10134 14.0068C7.77231 14.07 7.43564 14.0977 7.10278 14.1056C7.87944 14.9708 8.91626 15.5831 10.0717 15.8004C11.3151 16.0295 12.4973 15.8162 13.4997 15.2908C13.6106 15.2315 13.7369 15.2197 13.8517 15.2592L15.9253 15.9742C16.2888 16.1006 16.6331 15.7411 16.5145 15.3658L16.5107 15.3698Z" fill="#50A80A"/>
<path d="M5.90533 2.09956C3.75135 2.51438 2.02588 4.31982 1.63946 6.54797C1.41373 7.83982 1.62798 9.06452 2.1483 10.1035C2.20569 10.2181 2.21717 10.3485 2.17891 10.4709L1.48643 12.6043C1.364 12.9796 1.71215 13.3351 2.07561 13.2127L4.14925 12.4976C4.26785 12.4581 4.3941 12.47 4.50123 12.5292C5.50361 13.0547 6.68581 13.268 7.92923 13.0388C10.0794 12.6398 11.824 10.8621 12.2295 8.64575C12.9373 4.73463 9.68914 1.37265 5.90533 2.09956ZM7.275 9.29365H4.59688C4.33289 9.29365 4.11864 9.07242 4.11864 8.79983C4.11864 8.52723 4.33289 8.306 4.59688 8.306H7.275C7.53899 8.306 7.75324 8.52723 7.75324 8.79983C7.75324 9.07242 7.53899 9.29365 7.275 9.29365ZM9.18795 7.31834H4.59688C4.33289 7.31834 4.11864 7.09711 4.11864 6.82451C4.11864 6.55192 4.33289 6.33069 4.59688 6.33069H9.18795C9.45194 6.33069 9.66619 6.55192 9.66619 6.82451C9.66619 7.09711 9.45194 7.31834 9.18795 7.31834Z" fill="#50A80A"/>
</svg>
