<svg width="18" height="18" viewBox="0 0 18 18" fill="none" xmlns="http://www.w3.org/2000/svg">
<path d="M16.1795 4.40967H1.82051C1.36923 4.40967 1 4.76885 1 5.20785V13.9879C1 14.4269 1.36923 14.7861 1.82051 14.7861H16.1795C16.6308 14.7861 17 14.4269 17 13.9879V5.20785C17 4.76885 16.6308 4.40967 16.1795 4.40967ZM15.5641 11.5933C14.5426 11.5933 13.7179 12.3955 13.7179 13.3893H4.28205C4.28205 12.3955 3.45744 11.5933 2.4359 11.5933V7.60241C3.45744 7.60241 4.28205 6.80023 4.28205 5.80649H13.7179C13.7179 6.80023 14.5426 7.60241 15.5641 7.60241V11.5933Z" fill="#50A80A"/>
<path d="M4.69239 8.79939C4.2411 8.79939 3.87187 9.15857 3.87187 9.59757C3.87187 10.0366 4.2411 10.3958 4.69239 10.3958C5.14367 10.3958 5.5129 10.0366 5.5129 9.59757C5.5129 9.15857 5.14367 8.79939 4.69239 8.79939ZM14.7847 2.21436H3.29751C2.957 2.21436 2.68213 2.48175 2.68213 2.81299C2.68213 3.14424 2.957 3.41163 3.29751 3.41163H14.7847C15.1252 3.41163 15.4001 3.14424 15.4001 2.81299C15.4001 2.48175 15.1252 2.21436 14.7847 2.21436ZM9.5129 7.51032V7.19903C9.5129 6.92365 9.28315 6.70016 9.00008 6.70016C8.717 6.70016 8.48726 6.92365 8.48726 7.19903V7.49835H7.76931C7.48623 7.49835 7.25649 7.72184 7.25649 7.99721V11.19C7.25649 11.4653 7.48623 11.6888 7.76931 11.6888H8.48726V11.9881C8.48726 12.2635 8.717 12.487 9.00008 12.487C9.28315 12.487 9.5129 12.2635 9.5129 11.9881V11.6768C10.198 11.625 10.7437 11.0702 10.7437 10.3918C10.7437 10.0885 10.6329 9.81309 10.4524 9.59358C10.6329 9.37408 10.7437 9.09871 10.7437 8.7954C10.7437 8.11295 10.198 7.5622 9.5129 7.51032ZM9.41033 10.6911H8.28213V10.0925H9.41033C9.57854 10.0925 9.71803 10.2281 9.71803 10.3918C9.71803 10.5554 9.57854 10.6911 9.41033 10.6911ZM9.41033 9.09472H8.28213V8.49608H9.41033C9.57854 8.49608 9.71803 8.63177 9.71803 8.7954C9.71803 8.95903 9.57854 9.09472 9.41033 9.09472ZM13.3078 8.7954C12.8565 8.7954 12.4873 9.15458 12.4873 9.59358C12.4873 10.0326 12.8565 10.3918 13.3078 10.3918C13.7591 10.3918 14.1283 10.0326 14.1283 9.59358C14.1283 9.15458 13.7591 8.7954 13.3078 8.7954Z" fill="#50A80A"/>
</svg>
