<svg width="32" height="32" viewBox="0 0 32 32" fill="none" xmlns="http://www.w3.org/2000/svg">
<path fill-rule="evenodd" clip-rule="evenodd" d="M18.7278 3.1667L16 0L13.2722 3.1667L9.49221 1.38327L8.28825 5.3857L4.10968 5.29391L4.63774 9.44L0.783092 11.0557L2.95187 14.6286L0.0876465 17.6725L3.52214 20.0543L2.14359 24L6.24994 24.779L6.59543 28.9443L10.6636 27.9857L12.6734 31.6504L16 29.12L19.3266 31.6504L21.3364 27.9857L25.4046 28.9443L25.7501 24.779L29.8564 24L28.4779 20.0543L31.9123 17.6725L29.0481 14.6286L31.2169 11.0557L27.3623 9.44L27.8903 5.29391L23.7117 5.3857L22.5078 1.38327L18.7278 3.1667ZM17.515 14.7839L18.851 18.9999H20.387L21.083 16.5279L21.795 18.9999H23.323L24.659 14.7839H23.163L22.547 17.3039L21.859 14.7839H20.371L19.675 17.3039L19.051 14.7839H17.515ZM15.4896 17.8799C15.655 17.8853 15.7936 17.8559 15.9056 17.7919C16.0176 17.7226 16.087 17.6506 16.1136 17.5759H17.4976C17.439 17.8426 17.3456 18.0693 17.2176 18.2559C17.0896 18.4373 16.935 18.5893 16.7536 18.7119C16.5723 18.8346 16.3723 18.9253 16.1536 18.9839C15.935 19.0373 15.7083 19.0639 15.4736 19.0639C15.1483 19.0639 14.8523 19.0159 14.5856 18.9199C14.3243 18.8186 14.1003 18.6746 13.9136 18.4879C13.727 18.2959 13.5803 18.0666 13.4736 17.7999C13.3723 17.5279 13.3216 17.2186 13.3216 16.8719C13.3216 16.5413 13.3776 16.2399 13.4896 15.9679C13.6016 15.6906 13.759 15.4533 13.9616 15.2559C14.1483 15.0799 14.3643 14.9439 14.6096 14.8479C14.8603 14.7466 15.1456 14.6959 15.4656 14.6959C15.7963 14.6959 16.0763 14.7413 16.3056 14.8319C16.5403 14.9226 16.7536 15.0613 16.9456 15.2479C17.127 15.4346 17.263 15.6586 17.3536 15.9199C17.4496 16.1813 17.4976 16.4613 17.4976 16.7599C17.4976 16.8613 17.4923 16.9546 17.4816 17.0399C17.4763 17.1199 17.4629 17.2053 17.4416 17.2959H14.7216C14.7376 17.4506 14.8043 17.5866 14.9216 17.7039C15.0443 17.8159 15.2336 17.8746 15.4896 17.8799ZM15.4656 15.8159C15.343 15.8159 15.2336 15.8346 15.1376 15.8719C15.047 15.9039 14.9723 15.9493 14.9136 16.0079C14.8603 16.0613 14.8176 16.1226 14.7856 16.1919C14.759 16.2559 14.7456 16.3173 14.7456 16.3759H16.1696C16.1696 16.3173 16.1563 16.2559 16.1296 16.1919C16.1083 16.1226 16.0683 16.0613 16.0096 16.0079C15.951 15.9493 15.8763 15.9039 15.7856 15.8719C15.7003 15.8346 15.5936 15.8159 15.4656 15.8159ZM11.28 16.5759L8.88799 13.3359H7.53599V18.9999H8.98399V15.8079L11.416 18.9999H12.728V13.3359H11.28V16.5759Z" fill="#50A80A"/>
</svg>
