<svg width="42" height="27" viewBox="0 0 42 27" fill="none" xmlns="http://www.w3.org/2000/svg">
<path fill-rule="evenodd" clip-rule="evenodd" d="M21.0906 3.16526C19.9144 3.16526 18.7491 3.27146 17.6069 3.47863C17.6381 1.55204 19.1861 0 21.0912 0C22.9963 0 24.5443 1.55216 24.5754 3.47885C23.4329 3.27154 22.2671 3.16526 21.0906 3.16526ZM39.0578 20.9888C39.1421 21.9192 38.3768 22.6781 37.4427 22.6781H25.5281C25.1395 22.6781 24.8245 22.9931 24.8245 23.3818C24.8245 23.7704 25.1395 24.0854 25.5281 24.0854H42C41.5334 25.8059 39.9718 27.0004 38.1891 27.0004H3.81094C2.02823 27.0004 0.466629 25.8059 0 24.0854H16.4719C16.8605 24.0854 17.1755 23.7704 17.1755 23.3818C17.1755 22.9931 16.8605 22.6781 16.4719 22.6781H4.64447C3.71676 22.6781 2.95686 21.9244 3.04002 21.0005C3.42374 16.7371 5.26102 12.723 8.2616 9.67095C11.6531 6.22123 16.2531 4.2832 21.0494 4.2832C25.8458 4.2832 30.4457 6.22123 33.8372 9.67095C36.8351 12.7202 38.6717 16.7298 39.0578 20.9888Z" fill="#50A80A"/>
</svg>
