<svg width="28" height="23" viewBox="0 0 28 23" fill="none" xmlns="http://www.w3.org/2000/svg">
<path d="M1.71262 9.79204C1.71262 9.79204 13.7189 4.86719 17.8829 3.13308C19.4791 2.43944 24.8923 0.219788 24.8923 0.219788C24.8923 0.219788 27.3907 -0.75131 27.1825 1.60707C27.1131 2.57817 26.5579 5.97701 26.0027 9.65331C25.1699 14.8556 24.2677 20.5435 24.2677 20.5435C24.2677 20.5435 24.1289 22.1389 22.9491 22.4163C21.7693 22.6938 19.8261 21.4452 19.4791 21.1678C19.2015 20.9597 14.2741 17.8383 12.4697 16.3123C11.9839 15.8961 11.4287 15.0637 12.5391 14.0926C15.0375 11.8036 18.0217 8.95967 19.8261 7.15621C20.6589 6.32384 21.4917 4.38164 18.0217 6.74002C13.0943 10.1389 8.23625 13.3296 8.23625 13.3296C8.23625 13.3296 7.12585 14.0233 5.04384 13.399C2.96183 12.7747 0.532819 11.9423 0.532819 11.9423C0.532819 11.9423 -1.13279 10.9019 1.71262 9.79204Z" fill="#50A80A"/>
</svg>
