<svg width="26" height="28" viewBox="0 0 26 28" fill="none" xmlns="http://www.w3.org/2000/svg">
<path d="M22.1017 5.61217C20.5568 4.62882 19.4421 3.05491 19.0942 1.22131C19.0191 0.825255 18.9774 0.417246 18.9774 0H14.0466L14.0382 19.2916C13.9558 21.4523 12.1343 23.1859 9.90156 23.1859C9.20758 23.1859 8.55422 23.017 7.97877 22.7209C6.65925 22.0434 5.75601 20.6933 5.75601 19.1401C5.75601 16.9088 7.61591 15.0931 9.90101 15.0931C10.3279 15.0931 10.7369 15.1621 11.1237 15.28V10.3659C10.723 10.3122 10.3162 10.2796 9.90101 10.2796C4.89673 10.2796 0.825195 14.2537 0.825195 19.1401C0.825195 22.1374 2.35898 24.7903 4.70028 26.394C6.17396 27.4051 7.96764 28 9.90156 28C14.9064 28 18.9774 24.0253 18.9774 19.1401V9.35706C20.9113 10.712 23.281 11.5107 25.8382 11.5107V6.69657C24.4608 6.69657 23.178 6.29726 22.1017 5.61217Z" fill="#50A80A"/>
</svg>


