<svg width="21" height="21" viewBox="0 0 21 21" fill="none" xmlns="http://www.w3.org/2000/svg">
<path d="M17.9584 10.042L18.7936 9.78101L18.7936 9.78101L17.9584 10.042ZM16.7546 6.18967L15.9194 6.45066L15.9194 6.45066L16.7546 6.18967ZM7.4375 13.4258L8.06669 12.8177L7.83082 12.5737L7.49208 12.5525L7.4375 13.4258ZM10.8591 16.9661L10.2299 17.5742H10.2299L10.8591 16.9661ZM12.25 13.5625L12.3371 12.6918C12.0269 12.6608 11.7236 12.7972 11.541 13.0497C11.3583 13.3023 11.3238 13.633 11.4504 13.9179L12.25 13.5625ZM14.8754 13.825L14.7884 14.6957L14.8754 13.825ZM13.4532 16.2696L14.2528 15.9143L13.4532 16.2696ZM3.44542 13.1763L3.39084 14.0496H3.39084L3.44542 13.1763ZM17.6003 12.537L18.3284 13.0224V13.0224L17.6003 12.537ZM1.75 5.25V12.303H3.5V5.25H1.75ZM18.7936 9.78101L17.5898 5.92868L15.9194 6.45066L17.1233 10.303L18.7936 9.78101ZM6.80831 14.0339L10.2299 17.5742L11.4882 16.3581L8.06669 12.8177L6.80831 14.0339ZM12.1174 18.375H12.6536V16.625H12.1174V18.375ZM12.1629 14.4332L14.7884 14.6957L14.9625 12.9544L12.3371 12.6918L12.1629 14.4332ZM14.2528 15.9143L13.0496 13.2071L11.4504 13.9179L12.6536 16.625L14.2528 15.9143ZM3.39084 14.0496L6.94542 14.2717L7.05458 12.5251L3.5 12.303L3.39084 14.0496ZM6.94542 14.2717L7.38292 14.2991L7.49208 12.5525L7.05458 12.5251L6.94542 14.2717ZM14.2863 3.5H7V5.25H14.2863V3.5ZM7 3.5H3.5V5.25H7V3.5ZM7.875 13.3984V4.375H6.125V13.3984H7.875ZM12.6536 18.375C13.92 18.375 14.7671 17.0715 14.2528 15.9143L12.6536 16.625V18.375ZM10.2299 17.5742C10.7245 18.086 11.4057 18.375 12.1174 18.375V16.625C11.8802 16.625 11.6531 16.5287 11.4882 16.3581L10.2299 17.5742ZM17.5898 5.92868C17.1382 4.48379 15.8001 3.5 14.2863 3.5V5.25C15.0347 5.25 15.6962 5.73636 15.9194 6.45066L17.5898 5.92868ZM18.3284 13.0224C18.9649 12.0676 19.1359 10.8763 18.7936 9.78101L17.1233 10.303C17.3079 10.8939 17.2157 11.5366 16.8723 12.0517L18.3284 13.0224ZM16.8723 12.0517C16.4516 12.6826 15.7171 13.0298 14.9625 12.9544L14.7884 14.6957C16.187 14.8356 17.5487 14.1919 18.3284 13.0224L16.8723 12.0517ZM1.75 12.303C1.75 13.2271 2.46853 13.9919 3.39084 14.0496L3.5 12.303H3.5H1.75ZM3.5 5.25H3.5V3.5C2.5335 3.5 1.75 4.2835 1.75 5.25H3.5Z" fill="#50A80A"/>
</svg>
