<svg width="296" height="43" viewBox="0 0 296 43" fill="none" xmlns="http://www.w3.org/2000/svg">
<path d="M289.228 39.6934C288.189 40.8067 287.02 41.6253 285.721 42.1492C284.454 42.6403 282.912 42.9186 281.093 42.9841C279.405 42.9841 277.846 42.7222 276.417 42.1983C274.988 41.6416 273.754 40.823 272.715 39.7425C271.481 38.4327 270.604 36.9102 270.084 35.1747C269.597 33.4393 269.354 31.6712 269.354 29.8703C269.354 25.6463 270.523 22.2574 272.861 19.7033C273.9 18.5901 275.199 17.7224 276.758 17.1002C278.317 16.4781 280.087 16.167 282.068 16.167C283.561 16.167 284.893 16.3962 286.062 16.8546C287.264 17.2803 288.27 17.9188 289.082 18.7702V7.81738H295.999V42.5912H289.618L289.228 39.6934ZM282.701 36.8447C284.779 36.7792 286.354 36.0752 287.426 34.7327C288.53 33.3575 289.082 31.6712 289.082 29.6738C289.082 27.5127 288.53 25.7609 287.426 24.4184C286.322 23.0759 284.714 22.3883 282.603 22.3556C281.532 22.3556 280.59 22.5357 279.778 22.8959C278.999 23.256 278.333 23.7799 277.781 24.4676C277.261 25.1224 276.871 25.8919 276.612 26.776C276.352 27.6273 276.222 28.5605 276.222 29.5756C276.222 30.6561 276.352 31.6384 276.612 32.5225C276.871 33.3738 277.261 34.1269 277.781 34.7818C278.333 35.4367 279.015 35.9442 279.827 36.3044C280.671 36.6646 281.629 36.8447 282.701 36.8447Z" fill="#50A80A"/>
<path d="M254.147 42.9849C249.99 42.9849 246.791 41.8062 244.551 39.4486C242.31 37.0583 241.189 33.7512 241.189 29.5273C241.189 27.4972 241.482 25.6635 242.066 24.0263C242.683 22.3564 243.528 20.9321 244.599 19.7533C245.703 18.5745 247.051 17.6904 248.642 17.101C250.266 16.4789 252.101 16.1678 254.147 16.1678C256.16 16.1678 257.963 16.4789 259.554 17.101C261.178 17.6904 262.542 18.5745 263.646 19.7533C264.783 20.9321 265.643 22.3564 266.228 24.0263C266.845 25.6635 267.153 27.4972 267.153 29.5273C267.153 33.784 266.017 37.0911 263.743 39.4486C261.503 41.8062 258.304 42.9849 254.147 42.9849ZM254.147 22.3564C252.036 22.3564 250.477 23.044 249.471 24.4193C248.464 25.7945 247.961 27.5135 247.961 29.5764C247.961 31.672 248.464 33.4074 249.471 34.7826C250.477 36.1579 252.036 36.8455 254.147 36.8455C256.258 36.8455 257.8 36.1579 258.775 34.7826C259.749 33.4074 260.236 31.672 260.236 29.5764C260.236 27.5135 259.749 25.7945 258.775 24.4193C257.8 23.044 256.258 22.3564 254.147 22.3564Z" fill="#50A80A"/>
<path d="M226.28 42.9849C222.123 42.9849 218.924 41.8062 216.683 39.4486C214.443 37.0583 213.322 33.7512 213.322 29.5273C213.322 27.4972 213.615 25.6635 214.199 24.0263C214.816 22.3564 215.66 20.9321 216.732 19.7533C217.836 18.5745 219.184 17.6904 220.775 17.101C222.399 16.4789 224.234 16.1678 226.28 16.1678C228.293 16.1678 230.096 16.4789 231.687 17.101C233.311 17.6904 234.675 18.5745 235.779 19.7533C236.915 20.9321 237.776 22.3564 238.361 24.0263C238.978 25.6635 239.286 27.4972 239.286 29.5273C239.286 33.784 238.149 37.0911 235.876 39.4486C233.635 41.8062 230.437 42.9849 226.28 42.9849ZM226.28 22.3564C224.169 22.3564 222.61 23.044 221.603 24.4193C220.597 25.7945 220.093 27.5135 220.093 29.5764C220.093 31.672 220.597 33.4074 221.603 34.7826C222.61 36.1579 224.169 36.8455 226.28 36.8455C228.391 36.8455 229.933 36.1579 230.908 34.7826C231.882 33.4074 232.369 31.672 232.369 29.5764C232.369 27.5135 231.882 25.7945 230.908 24.4193C229.933 23.044 228.391 22.3564 226.28 22.3564Z" fill="#50A80A"/>
<path d="M213.597 7.81726V14.1532H196.596V23.1413H210.869V29.379H196.596V42.5911H189.533V7.81726H213.597Z" fill="#50A80A"/>
<path d="M168.824 19.605C169.278 19.0484 169.749 18.5899 170.236 18.2298C170.724 17.8368 171.308 17.4603 171.99 17.1001C172.705 16.7727 173.419 16.5435 174.133 16.4125C174.88 16.2488 175.676 16.1669 176.52 16.1669C178.177 16.1669 179.622 16.4616 180.856 17.051C182.09 17.6076 183.113 18.3444 183.925 19.2612C184.866 20.4072 185.532 21.7497 185.922 23.2887C186.312 24.8276 186.506 26.5303 186.506 28.3967V42.5911H179.589V28.9369C179.589 28.0201 179.492 27.1524 179.297 26.3338C179.135 25.4825 178.842 24.7621 178.42 24.1727C177.998 23.5506 177.446 23.0922 176.764 22.7975C176.114 22.5028 175.303 22.3555 174.328 22.3555C173.354 22.3882 172.477 22.6174 171.698 23.0431C170.951 23.436 170.366 23.9599 169.944 24.6148C169.554 25.2697 169.262 26.0064 169.067 26.825C168.905 27.6108 168.824 28.4294 168.824 29.2808V42.5911H161.955V7.81726H168.824V19.605Z" fill="#50A80A"/>
<path d="M142.573 32.7188V42.5911H135.705V7.81726H142.573V26.7268H145.983L151.536 16.7072H159.379L151.78 28.9861L159.964 42.5911H151.975L146.227 32.7188H142.573Z" fill="#50A80A"/>
<path d="M125.853 39.3995C124.879 40.7093 123.694 41.6425 122.297 42.1991C120.901 42.7557 119.277 43.0177 117.426 42.9849C115.055 42.9195 113.074 42.2482 111.483 40.9712C110.639 40.2508 109.973 39.3995 109.486 38.4172C109.031 37.4021 108.804 36.207 108.804 34.8318C108.836 33.4238 109.145 32.1795 109.729 31.099C110.346 29.9857 111.272 29.0689 112.506 28.3485C113.545 27.7919 114.714 27.3989 116.013 27.1697C117.345 26.9405 118.79 26.8259 120.349 26.8259H125.61C125.707 25.2215 125.334 24.0263 124.489 23.2405C123.677 22.4219 122.524 21.9962 121.031 21.9635C120.543 21.9635 120.04 21.9962 119.52 22.0617C119.001 22.1272 118.514 22.2582 118.059 22.4546C117.637 22.6511 117.263 22.9294 116.939 23.2896C116.646 23.617 116.452 24.0263 116.354 24.5175H109.291C109.453 22.9458 109.875 21.636 110.557 20.5882C111.272 19.5077 112.165 18.64 113.237 17.9851C114.308 17.3302 115.494 16.8718 116.793 16.6099C118.124 16.3152 119.488 16.1678 120.884 16.1678C121.664 16.1678 122.459 16.217 123.271 16.3152C124.083 16.3807 124.879 16.5444 125.658 16.8063C126.438 17.0356 127.168 17.363 127.85 17.7887C128.565 18.1816 129.231 18.7055 129.848 19.3604C130.952 20.6374 131.634 22.1108 131.893 23.7808C132.186 25.4179 132.316 27.0224 132.283 28.5941V42.592H125.999L125.853 39.3995ZM125.61 31.1481H120.592C120.105 31.1481 119.553 31.1972 118.936 31.2954C118.319 31.3937 117.783 31.5738 117.328 31.8357C116.874 32.0977 116.484 32.4415 116.159 32.8671C115.867 33.2928 115.721 33.8167 115.721 34.4388C115.721 34.9627 115.818 35.4211 116.013 35.8141C116.24 36.207 116.517 36.5344 116.841 36.7964C117.199 37.0583 117.621 37.2712 118.108 37.4349C118.595 37.5659 119.082 37.6313 119.569 37.6313C120.511 37.6641 121.388 37.5004 122.2 37.1402C123.044 36.78 123.775 36.2725 124.392 35.6176C124.781 35.0937 125.074 34.5043 125.269 33.8494C125.496 33.1618 125.61 32.2614 125.61 31.1481Z" fill="#50A80A"/>
<path d="M99.1351 17.8376C98.9402 16.3642 98.2907 15.3164 97.1866 14.6942C96.0824 14.0393 94.7022 13.6792 93.046 13.6137C92.4615 13.6137 91.8444 13.6628 91.1949 13.761C90.5779 13.8593 89.9933 14.0557 89.4413 14.3504C88.8892 14.6451 88.4345 15.038 88.0773 15.5292C87.7201 16.0203 87.5415 16.6261 87.5415 17.3465C87.509 18.0996 87.6876 18.7381 88.0773 19.262C88.4995 19.7859 89.0516 20.2115 89.7335 20.539C90.2207 20.7682 90.7403 20.981 91.2923 21.1775C91.8769 21.3412 92.4452 21.5049 92.9973 21.6686C93.5494 21.7996 94.0852 21.9142 94.6048 22.0124C95.1244 22.1107 95.5791 22.2089 95.9688 22.3071C97.3652 22.6018 98.7129 22.9456 100.012 23.3386C101.311 23.7315 102.464 24.2718 103.47 24.9594C104.477 25.647 105.289 26.5638 105.906 27.7098C106.523 28.8559 106.848 30.3457 106.88 32.1794C106.88 34.1767 106.507 35.8794 105.76 37.2874C105.013 38.6954 104.006 39.825 102.74 40.6763C101.538 41.5277 100.142 42.1498 98.5505 42.5427C96.9592 42.9029 95.2056 43.0503 93.2896 42.9848C91.4385 42.952 89.7011 42.7065 88.0773 42.248C86.4536 41.7569 85.0084 41.0529 83.7419 40.1361C82.5078 39.2193 81.5174 38.0732 80.7704 36.698C80.0235 35.3228 79.6013 33.7019 79.5039 31.8355H86.7134C86.9082 32.6869 87.233 33.3909 87.6876 33.9475C88.1423 34.5042 88.6781 34.9626 89.2951 35.3228C89.9122 35.6829 90.5941 35.9449 91.3411 36.1086C92.1205 36.2723 92.8999 36.3706 93.6793 36.4033C94.4911 36.436 95.2705 36.4033 96.0175 36.3051C96.7644 36.2068 97.4139 36.0267 97.966 35.7648C98.5505 35.4701 99.0052 35.0772 99.3299 34.586C99.6547 34.0949 99.8171 33.4727 99.8171 32.7196C99.8171 31.6718 99.4923 30.9024 98.8428 30.4112C98.2258 29.92 97.5438 29.5762 96.7969 29.3798C96.2773 29.2488 95.8064 29.1342 95.3842 29.036C94.9945 28.905 94.6048 28.8068 94.2151 28.7413C93.8254 28.643 93.4195 28.5448 92.9973 28.4466C92.5751 28.3483 92.088 28.2337 91.5359 28.1028C90.3019 27.7753 89.0191 27.4151 87.6876 27.0222C86.3886 26.5966 85.2195 26.0072 84.1803 25.2541C82.9138 24.37 81.9558 23.2403 81.3063 21.8651C80.6892 20.4899 80.4132 18.9673 80.4782 17.2973C80.5756 15.3327 81.0302 13.7119 81.8421 12.4349C82.654 11.1252 83.6932 10.0937 84.9597 9.34063C86.2262 8.58752 87.6227 8.06362 89.149 7.76893C90.6753 7.47423 92.2017 7.34326 93.728 7.37601C95.4167 7.40875 96.9755 7.65433 98.4044 8.11274C99.8658 8.53841 101.132 9.17691 102.204 10.0282C103.308 10.8796 104.201 11.9601 104.883 13.2699C105.565 14.5796 105.987 16.1022 106.15 17.8376H99.1351Z" fill="#50A80A"/>
<path d="M61.4878 36.1161C62.1475 36.1161 62.6849 35.5809 62.6583 34.9216C62.3626 27.5861 59.3515 20.6127 54.1982 15.4009C48.7658 9.90683 41.398 6.82031 33.7155 6.82031C26.033 6.82031 18.6652 9.90683 13.2329 15.4009C8.07517 20.6171 5.06334 27.5979 4.77198 34.9403C4.74623 35.5892 5.27513 36.1161 5.92455 36.1161H13.5761C14.1949 36.1161 14.6967 36.6178 14.6967 37.2367C14.6967 37.8556 14.1949 38.3573 13.5761 38.3573H0C0.747645 41.0983 3.23729 42.9999 6.07842 42.9999H61.1943C64.0354 42.9999 66.5251 41.0983 67.2727 38.3573H53.6967C53.0778 38.3573 52.5761 37.8556 52.5761 37.2367C52.5761 36.6178 53.0778 36.1161 53.6967 36.1161H61.4878Z" fill="#50A80A"/>
<path fill-rule="evenodd" clip-rule="evenodd" d="M28.2012 5.54001C30.0304 5.21012 31.8969 5.04102 33.7806 5.04102C35.6653 5.04102 37.5326 5.2103 39.3628 5.54052C39.3131 2.47202 36.8335 0 33.782 0C30.7306 0 28.2512 2.47174 28.2012 5.54001Z" fill="#50A80A"/>
<path fill-rule="evenodd" clip-rule="evenodd" d="M36.4382 29.291L42.8095 26.9468L25.6855 17.2002L30.6778 36.7595L34.4162 30.9265L38.8921 36.8575L40.9141 35.222L36.4382 29.291Z" fill="white"/>
</svg>
