<svg width="44" height="33" viewBox="0 0 44 33" fill="none" xmlns="http://www.w3.org/2000/svg">
<path fill-rule="evenodd" clip-rule="evenodd" d="M19.2533 2.83504C20.1781 2.66616 21.1217 2.57959 22.074 2.57959C23.0262 2.57959 23.9698 2.66615 24.8945 2.835C24.8695 1.26493 23.6163 0 22.0739 0C20.5315 0 19.2782 1.26495 19.2533 2.83504ZM36.0763 17.9998C36.4097 17.9998 36.6813 17.7289 36.668 17.3958C36.5193 13.6854 34.9974 10.5468 32.392 7.87951C29.6465 5.06864 25.9228 3.48951 22.04 3.48951C18.1572 3.48951 14.4335 5.06864 11.688 7.87951C9.08042 10.5491 7.55809 13.6907 7.41165 17.4052C7.39872 17.7332 7.66608 17.9998 7.9943 17.9998H11.6154C12.064 17.9998 12.4278 18.3635 12.4278 18.8122C12.4278 19.2608 12.064 19.6246 11.6154 19.6246H5C5.37127 21.5826 7.08248 22.9998 9.07535 22.9998H34.9247C36.9175 22.9998 38.6287 21.5826 39 19.6246H32.3846C31.936 19.6246 31.5722 19.2608 31.5722 18.8122C31.5722 18.3635 31.936 17.9998 32.3846 17.9998H36.0763ZM23.2466 11.6568C21.9062 9.20204 26.4583 6.57099 27.812 7.73733C29.1524 8.90367 27.4138 13.9217 24.8259 13.0266C24.5605 12.9316 24.2818 13.013 24.1225 13.23C23.8173 13.6368 23.512 14.0844 23.1802 14.5726C23.7376 15.1422 24.3348 15.8068 24.9719 16.5798C26.7502 18.7362 26.4052 19.2787 26.1132 19.5228C25.8212 19.7805 25.2373 20.0246 23.4722 17.8547C22.9546 17.2308 22.5167 16.6476 22.1185 16.0916C21.7204 16.6476 21.2691 17.2444 20.7516 17.8818C18.9865 20.0382 18.4025 19.7805 18.1105 19.5364C17.8186 19.2922 17.4868 18.7498 19.2519 16.5934C19.8889 15.8203 20.4994 15.1558 21.0568 14.5726C20.8445 14.2608 20.6454 13.976 20.4464 13.6912L20.4463 13.6911C20.3003 13.4877 20.0482 13.3927 19.8093 13.447C18.9201 13.664 17.9513 13.3249 17.4072 12.4976L15.7084 9.93439C15.6288 9.81233 15.6553 9.64959 15.7615 9.55465C15.8942 9.44616 16.08 9.47328 16.1729 9.6089L17.8717 11.9823C17.9778 12.1179 18.1636 12.145 18.2831 12.0365L18.3096 12.0094C18.4158 11.9145 18.4423 11.7382 18.3494 11.6161L16.5445 9.22916C16.4516 9.1071 16.4649 8.9308 16.5843 8.83586L16.6109 8.8223C16.7303 8.72736 16.9161 8.74093 17.009 8.86299L18.8537 11.1685C18.9599 11.2906 19.1324 11.3177 19.2519 11.2092L19.2652 11.1957C19.3846 11.0872 19.3979 10.9109 19.2917 10.7888L17.3939 8.53749C17.2877 8.41544 17.301 8.23913 17.4204 8.13063L17.447 8.11707C17.5664 8.02213 17.7257 8.0357 17.8318 8.14419L19.8226 10.3684C19.9287 10.4769 20.088 10.4904 20.2074 10.3955L20.234 10.3684C20.3667 10.2599 20.3667 10.07 20.2605 9.94795L18.2565 7.8187C18.1504 7.69664 18.1636 7.50677 18.2831 7.39828C18.3892 7.30334 18.5485 7.31691 18.6547 7.41184L20.7781 9.51397C21.4948 10.2192 21.6806 11.277 21.3222 12.145C21.2293 12.362 21.2824 12.6333 21.4549 12.8096L22.1185 13.4877L22.1186 13.4876C22.5034 13.0943 22.8485 12.7417 23.167 12.3891C23.3528 12.1993 23.3793 11.9009 23.2466 11.6568Z" fill="#50A80A"/>
<path d="M42.4954 32.3348C42.2855 32.5586 42.0494 32.7232 41.787 32.8286C41.5312 32.9273 41.2197 32.9833 40.8524 32.9964C40.5113 32.9964 40.1965 32.9438 39.9079 32.8384C39.6193 32.7265 39.3701 32.5619 39.1602 32.3446C38.9109 32.0813 38.7338 31.7751 38.6289 31.4262C38.5305 31.0772 38.4813 30.7217 38.4813 30.3596C38.4813 29.5102 38.7174 28.8288 39.1897 28.3153C39.3996 28.0914 39.6619 27.9169 39.9768 27.7918C40.2916 27.6667 40.6491 27.6042 41.0492 27.6042C41.3509 27.6042 41.6198 27.6503 41.8559 27.7425C42.0986 27.8281 42.3019 27.9564 42.4659 28.1276V25.9253H43.8629V32.9174H42.5741L42.4954 32.3348ZM41.1771 31.762C41.5968 31.7488 41.9149 31.6072 42.1314 31.3373C42.3544 31.0608 42.4659 30.7217 42.4659 30.3201C42.4659 29.8855 42.3544 29.5333 42.1314 29.2634C41.9084 28.9934 41.5837 28.8551 41.1574 28.8486C40.9409 28.8486 40.7507 28.8848 40.5868 28.9572C40.4293 29.0296 40.2949 29.135 40.1834 29.2732C40.0784 29.4049 39.9997 29.5596 39.9473 29.7374C39.8948 29.9086 39.8685 30.0962 39.8685 30.3003C39.8685 30.5176 39.8948 30.7151 39.9473 30.8929C39.9997 31.0641 40.0784 31.2155 40.1834 31.3472C40.2949 31.4788 40.4326 31.5809 40.5966 31.6533C40.7671 31.7257 40.9606 31.762 41.1771 31.762Z" fill="#50A80A"/>
<path d="M35.411 32.9972C34.5714 32.9972 33.9254 32.7602 33.4728 32.2862C33.0202 31.8055 32.7939 31.1406 32.7939 30.2912C32.7939 29.883 32.853 29.5143 32.971 29.1851C33.0957 28.8493 33.2662 28.5629 33.4826 28.3259C33.7056 28.0889 33.9778 27.9111 34.2992 27.7926C34.6272 27.6675 34.9978 27.605 35.411 27.605C35.8176 27.605 36.1816 27.6675 36.503 27.7926C36.831 27.9111 37.1065 28.0889 37.3295 28.3259C37.559 28.5629 37.7328 28.8493 37.8509 29.1851C37.9755 29.5143 38.0378 29.883 38.0378 30.2912C38.0378 31.1471 37.8083 31.8121 37.3491 32.2862C36.8966 32.7602 36.2505 32.9972 35.411 32.9972ZM35.411 28.8493C34.9846 28.8493 34.6698 28.9876 34.4665 29.2641C34.2632 29.5407 34.1615 29.8863 34.1615 30.3011C34.1615 30.7225 34.2632 31.0714 34.4665 31.348C34.6698 31.6245 34.9846 31.7627 35.411 31.7627C35.8373 31.7627 36.1489 31.6245 36.3456 31.348C36.5424 31.0714 36.6408 30.7225 36.6408 30.3011C36.6408 29.8863 36.5424 29.5407 36.3456 29.2641C36.1489 28.9876 35.8373 28.8493 35.411 28.8493Z" fill="#50A80A"/>
<path d="M29.7821 32.9972C28.9425 32.9972 28.2965 32.7602 27.8439 32.2862C27.3913 31.8055 27.165 31.1406 27.165 30.2912C27.165 29.883 27.2241 29.5143 27.3421 29.1851C27.4668 28.8493 27.6373 28.5629 27.8537 28.3259C28.0767 28.0889 28.3489 27.9111 28.6703 27.7926C28.9983 27.6675 29.3688 27.605 29.7821 27.605C30.1887 27.605 30.5527 27.6675 30.8741 27.7926C31.2021 27.9111 31.4776 28.0889 31.7006 28.3259C31.9301 28.5629 32.1039 28.8493 32.222 29.1851C32.3466 29.5143 32.4089 29.883 32.4089 30.2912C32.4089 31.1471 32.1794 31.8121 31.7202 32.2862C31.2677 32.7602 30.6216 32.9972 29.7821 32.9972ZM29.7821 28.8493C29.3557 28.8493 29.0409 28.9876 28.8376 29.2641C28.6342 29.5407 28.5326 29.8863 28.5326 30.3011C28.5326 30.7225 28.6342 31.0714 28.8376 31.348C29.0409 31.6245 29.3557 31.7627 29.7821 31.7627C30.2084 31.7627 30.5199 31.6245 30.7167 31.348C30.9135 31.0714 31.0119 30.7225 31.0119 30.3011C31.0119 29.8863 30.9135 29.5407 30.7167 29.2641C30.5199 28.9876 30.2084 28.8493 29.7821 28.8493Z" fill="#50A80A"/>
<path d="M27.2205 25.9253V27.1993H23.7869V29.0066H26.6696V30.2608H23.7869V32.9174H22.3604V25.9253H27.2205Z" fill="#50A80A"/>
<path d="M18.1773 28.2955C18.2691 28.1836 18.3642 28.0914 18.4626 28.019C18.561 27.94 18.679 27.8643 18.8168 27.7918C18.9611 27.726 19.1054 27.6799 19.2496 27.6536C19.4005 27.6207 19.5612 27.6042 19.7317 27.6042C20.0662 27.6042 20.3581 27.6635 20.6074 27.782C20.8566 27.8939 21.0632 28.042 21.2272 28.2264C21.4174 28.4568 21.5518 28.7268 21.6306 29.0362C21.7093 29.3457 21.7486 29.688 21.7486 30.0633V32.9174H20.3516V30.1719C20.3516 29.9876 20.3319 29.8131 20.2925 29.6485C20.2597 29.4773 20.2007 29.3325 20.1154 29.214C20.0302 29.0889 19.9187 28.9967 19.7809 28.9374C19.6497 28.8782 19.4858 28.8486 19.289 28.8486C19.0922 28.8551 18.9151 28.9012 18.7577 28.9868C18.6069 29.0658 18.4888 29.1712 18.4035 29.3029C18.3248 29.4345 18.2658 29.5827 18.2265 29.7473C18.1937 29.9053 18.1773 30.0699 18.1773 30.2411V32.9174H16.79V25.9253H18.1773V28.2955Z" fill="#50A80A"/>
<path d="M12.8765 30.9324V32.9174H11.4893V25.9253H12.8765V29.7275H13.5652L14.6867 27.7128H16.2707L14.7359 30.1818L16.3888 32.9174H14.7753L13.6144 30.9324H12.8765Z" fill="#50A80A"/>
<path d="M9.49912 32.2763C9.30235 32.5396 9.06295 32.7273 8.78091 32.8392C8.49888 32.9511 8.17093 33.0038 7.79707 32.9972C7.31826 32.9841 6.91817 32.8491 6.59678 32.5923C6.42625 32.4475 6.29179 32.2763 6.1934 32.0788C6.10158 31.8747 6.05566 31.6344 6.05566 31.3578C6.06222 31.0747 6.12453 30.8245 6.24259 30.6073C6.36721 30.3834 6.55414 30.1991 6.80339 30.0542C7.01327 29.9423 7.24939 29.8633 7.51175 29.8172C7.78067 29.7711 8.07254 29.7481 8.38737 29.7481H9.44993C9.4696 29.4254 9.39417 29.1851 9.22364 29.0271C9.05967 28.8625 8.82682 28.7769 8.52511 28.7703C8.42673 28.7703 8.32506 28.7769 8.22012 28.7901C8.11518 28.8033 8.01679 28.8296 7.92497 28.8691C7.8397 28.9086 7.76427 28.9646 7.69868 29.037C7.63965 29.1028 7.6003 29.1851 7.58062 29.2839H6.15405C6.18684 28.9679 6.27211 28.7045 6.40985 28.4938C6.55414 28.2765 6.73452 28.1021 6.95096 27.9704C7.16741 27.8387 7.40681 27.7465 7.66917 27.6939C7.93809 27.6346 8.21356 27.605 8.4956 27.605C8.65301 27.605 8.81371 27.6149 8.97768 27.6346C9.14165 27.6478 9.30235 27.6807 9.45976 27.7334C9.61718 27.7795 9.76476 27.8453 9.90249 27.9309C10.0468 28.0099 10.1812 28.1152 10.3059 28.2469C10.5289 28.5037 10.6666 28.8 10.7191 29.1357C10.7781 29.4649 10.8043 29.7876 10.7978 30.1036V32.9182H9.52863L9.49912 32.2763ZM9.44993 30.6171H8.43657C8.33818 30.6171 8.22668 30.627 8.10206 30.6468C7.97744 30.6665 7.86922 30.7027 7.77739 30.7554C7.68557 30.8081 7.60686 30.8772 7.54127 30.9628C7.48224 31.0484 7.45272 31.1537 7.45272 31.2788C7.45272 31.3842 7.4724 31.4763 7.51175 31.5553C7.55767 31.6344 7.61342 31.7002 7.67901 31.7529C7.75115 31.8055 7.83642 31.8483 7.93481 31.8813C8.03319 31.9076 8.13157 31.9208 8.22996 31.9208C8.42017 31.9273 8.59726 31.8944 8.76123 31.822C8.93177 31.7496 9.07934 31.6475 9.20396 31.5158C9.28267 31.4105 9.3417 31.292 9.38106 31.1603C9.42697 31.022 9.44993 30.841 9.44993 30.6171Z" fill="#50A80A"/>
<path d="M4.10259 27.9405C4.06323 27.6442 3.93205 27.4335 3.70905 27.3084C3.48604 27.1768 3.20729 27.1043 2.87278 27.0912C2.75472 27.0912 2.6301 27.101 2.49892 27.1208C2.3743 27.1405 2.25624 27.18 2.14474 27.2393C2.03323 27.2986 1.94141 27.3776 1.86926 27.4763C1.79711 27.5751 1.76104 27.6969 1.76104 27.8417C1.75448 27.9932 1.79055 28.1216 1.86926 28.2269C1.95453 28.3322 2.06603 28.4178 2.20377 28.4837C2.30215 28.5298 2.40709 28.5726 2.5186 28.6121C2.63666 28.645 2.75144 28.6779 2.86294 28.7108C2.97444 28.7372 3.08267 28.7602 3.18761 28.7799C3.29255 28.7997 3.38438 28.8195 3.46309 28.8392C3.74512 28.8985 4.01732 28.9676 4.27968 29.0466C4.54204 29.1256 4.77488 29.2342 4.97821 29.3725C5.18153 29.5108 5.34551 29.6951 5.47013 29.9256C5.59475 30.156 5.66034 30.4556 5.6669 30.8243C5.6669 31.2259 5.59147 31.5682 5.44061 31.8514C5.28976 32.1345 5.08643 32.3616 4.83063 32.5328C4.58795 32.704 4.30591 32.8291 3.98452 32.9081C3.66314 32.9805 3.30895 33.0101 2.92197 32.997C2.54811 32.9904 2.19721 32.941 1.86926 32.8488C1.54131 32.7501 1.24944 32.6085 0.993639 32.4242C0.744399 32.2398 0.544351 32.0094 0.393495 31.7328C0.242639 31.4563 0.157372 31.1304 0.137695 30.7551H1.59378C1.63314 30.9263 1.69873 31.0679 1.79055 31.1798C1.88238 31.2917 1.9906 31.3839 2.11522 31.4563C2.23984 31.5287 2.37758 31.5814 2.52844 31.6143C2.68585 31.6473 2.84327 31.667 3.00068 31.6736C3.16465 31.6802 3.32207 31.6736 3.47293 31.6538C3.62378 31.6341 3.75496 31.5979 3.86646 31.5452C3.98452 31.4859 4.07635 31.4069 4.14194 31.3082C4.20753 31.2094 4.24032 31.0843 4.24032 30.9329C4.24032 30.7222 4.17473 30.5675 4.04356 30.4687C3.91893 30.37 3.7812 30.3008 3.63034 30.2613C3.5254 30.235 3.43029 30.212 3.34503 30.1922C3.26632 30.1659 3.18761 30.1461 3.1089 30.1329C3.0302 30.1132 2.94821 30.0934 2.86294 30.0737C2.77768 30.0539 2.67929 30.0309 2.56779 30.0046C2.31855 29.9387 2.05947 29.8663 1.79055 29.7873C1.52819 29.7017 1.29207 29.5832 1.08219 29.4318C0.826386 29.254 0.632897 29.0268 0.501718 28.7503C0.377097 28.4738 0.321346 28.1676 0.334464 27.8319C0.354141 27.4368 0.445966 27.1109 0.60994 26.8541C0.773914 26.5908 0.983801 26.3834 1.2396 26.232C1.4954 26.0805 1.77743 25.9752 2.08571 25.9159C2.39398 25.8567 2.70225 25.8303 3.01052 25.8369C3.35158 25.8435 3.66641 25.8929 3.95501 25.9851C4.25016 26.0707 4.50596 26.199 4.72241 26.3702C4.94541 26.5414 5.12578 26.7587 5.26352 27.022C5.40126 27.2854 5.48653 27.5915 5.51932 27.9405H4.10259Z" fill="#50A80A"/>
</svg>
