<svg width="123" height="123" viewBox="0 0 123 123" fill="none" xmlns="http://www.w3.org/2000/svg">
<g clip-path="url(#clip0_2365_1352)">
<path d="M4.24138 0H0V4.24138H4.24138V0Z" fill="black"/>
<path d="M8.48283 0H4.24146V4.24138H8.48283V0Z" fill="black"/>
<path d="M12.724 0H8.48267V4.24138H12.724V0Z" fill="black"/>
<path d="M16.9655 0H12.7241V4.24138H16.9655V0Z" fill="black"/>
<path d="M21.207 0H16.9656V4.24138H21.207V0Z" fill="black"/>
<path d="M25.4482 0H21.2068V4.24138H25.4482V0Z" fill="black"/>
<path d="M29.6896 0H25.4482V4.24138H29.6896V0Z" fill="black"/>
<path d="M38.1725 0H33.9312V4.24138H38.1725V0Z" fill="black"/>
<path d="M42.4137 0H38.1724V4.24138H42.4137V0Z" fill="black"/>
<path d="M50.8967 0H46.6553V4.24138H50.8967V0Z" fill="black"/>
<path d="M59.3793 0H55.1379V4.24138H59.3793V0Z" fill="black"/>
<path d="M63.6208 0H59.3794V4.24138H63.6208V0Z" fill="black"/>
<path d="M89.069 0H84.8276V4.24138H89.069V0Z" fill="black"/>
<path d="M97.5517 0H93.3103V4.24138H97.5517V0Z" fill="black"/>
<path d="M101.793 0H97.5518V4.24138H101.793V0Z" fill="black"/>
<path d="M106.035 0H101.793V4.24138H106.035V0Z" fill="black"/>
<path d="M110.276 0H106.034V4.24138H110.276V0Z" fill="black"/>
<path d="M114.517 0H110.276V4.24138H114.517V0Z" fill="black"/>
<path d="M118.759 0H114.517V4.24138H118.759V0Z" fill="black"/>
<path d="M123 0H118.759V4.24138H123V0Z" fill="black"/>
<path d="M4.24138 4.24146H0V8.48283H4.24138V4.24146Z" fill="black"/>
<path d="M29.6896 4.24146H25.4482V8.48283H29.6896V4.24146Z" fill="black"/>
<path d="M42.4137 4.24146H38.1724V8.48283H42.4137V4.24146Z" fill="black"/>
<path d="M55.1379 4.24146H50.8965V8.48283H55.1379V4.24146Z" fill="black"/>
<path d="M63.6208 4.24146H59.3794V8.48283H63.6208V4.24146Z" fill="black"/>
<path d="M80.5861 4.24146H76.3447V8.48283H80.5861V4.24146Z" fill="black"/>
<path d="M84.8276 4.24146H80.5862V8.48283H84.8276V4.24146Z" fill="black"/>
<path d="M89.069 4.24146H84.8276V8.48283H89.069V4.24146Z" fill="black"/>
<path d="M97.5517 4.24146H93.3103V8.48283H97.5517V4.24146Z" fill="black"/>
<path d="M123 4.24146H118.759V8.48283H123V4.24146Z" fill="black"/>
<path d="M4.24138 8.48242H0V12.7238H4.24138V8.48242Z" fill="black"/>
<path d="M12.7243 8.48242H8.48291V12.7238H12.7243V8.48242Z" fill="black"/>
<path d="M16.9655 8.48242H12.7241V12.7238H16.9655V8.48242Z" fill="black"/>
<path d="M21.207 8.48242H16.9656V12.7238H21.207V8.48242Z" fill="black"/>
<path d="M29.6896 8.48242H25.4482V12.7238H29.6896V8.48242Z" fill="black"/>
<path d="M42.4137 8.48242H38.1724V12.7238H42.4137V8.48242Z" fill="black"/>
<path d="M59.3791 8.48242H55.1377V12.7238H59.3791V8.48242Z" fill="black"/>
<path d="M63.6208 8.48242H59.3794V12.7238H63.6208V8.48242Z" fill="black"/>
<path d="M80.5861 8.48242H76.3447V12.7238H80.5861V8.48242Z" fill="black"/>
<path d="M89.069 8.48242H84.8276V12.7238H89.069V8.48242Z" fill="black"/>
<path d="M97.5519 8.48242H93.3105V12.7238H97.5519V8.48242Z" fill="black"/>
<path d="M106.034 8.48242H101.793V12.7238H106.034V8.48242Z" fill="black"/>
<path d="M110.276 8.48242H106.034V12.7238H110.276V8.48242Z" fill="black"/>
<path d="M114.517 8.48242H110.276V12.7238H114.517V8.48242Z" fill="black"/>
<path d="M123 8.48242H118.759V12.7238H123V8.48242Z" fill="black"/>
<path d="M4.24138 12.7246H0V16.966H4.24138V12.7246Z" fill="black"/>
<path d="M12.7243 12.7246H8.48291V16.966H12.7243V12.7246Z" fill="black"/>
<path d="M16.9655 12.7246H12.7241V16.966H16.9655V12.7246Z" fill="black"/>
<path d="M21.207 12.7246H16.9656V16.966H21.207V12.7246Z" fill="black"/>
<path d="M29.6896 12.7246H25.4482V16.966H29.6896V12.7246Z" fill="black"/>
<path d="M38.1725 12.7246H33.9312V16.966H38.1725V12.7246Z" fill="black"/>
<path d="M55.1379 12.7246H50.8965V16.966H55.1379V12.7246Z" fill="black"/>
<path d="M59.3791 12.7246H55.1377V16.966H59.3791V12.7246Z" fill="black"/>
<path d="M76.3449 12.7246H72.1035V16.966H76.3449V12.7246Z" fill="black"/>
<path d="M84.8273 12.7246H80.5859V16.966H84.8273V12.7246Z" fill="black"/>
<path d="M89.069 12.7246H84.8276V16.966H89.069V12.7246Z" fill="black"/>
<path d="M97.5519 12.7246H93.3105V16.966H97.5519V12.7246Z" fill="black"/>
<path d="M106.034 12.7246H101.793V16.966H106.034V12.7246Z" fill="black"/>
<path d="M110.276 12.7246H106.034V16.966H110.276V12.7246Z" fill="black"/>
<path d="M114.517 12.7246H110.276V16.966H114.517V12.7246Z" fill="black"/>
<path d="M123 12.7246H118.759V16.966H123V12.7246Z" fill="black"/>
<path d="M4.24138 16.9658H0V21.2072H4.24138V16.9658Z" fill="black"/>
<path d="M12.7243 16.9658H8.48291V21.2072H12.7243V16.9658Z" fill="black"/>
<path d="M16.9655 16.9658H12.7241V21.2072H16.9655V16.9658Z" fill="black"/>
<path d="M21.207 16.9658H16.9656V21.2072H21.207V16.9658Z" fill="black"/>
<path d="M29.6896 16.9658H25.4482V21.2072H29.6896V16.9658Z" fill="black"/>
<path d="M42.4137 16.9658H38.1724V21.2072H42.4137V16.9658Z" fill="black"/>
<path d="M46.6554 16.9658H42.4141V21.2072H46.6554V16.9658Z" fill="black"/>
<path d="M55.1379 16.9658H50.8965V21.2072H55.1379V16.9658Z" fill="black"/>
<path d="M59.3791 16.9658H55.1377V21.2072H59.3791V16.9658Z" fill="black"/>
<path d="M67.862 16.9658H63.6206V21.2072H67.862V16.9658Z" fill="black"/>
<path d="M72.1037 16.9658H67.8623V21.2072H72.1037V16.9658Z" fill="black"/>
<path d="M76.3449 16.9658H72.1035V21.2072H76.3449V16.9658Z" fill="black"/>
<path d="M84.8273 16.9658H80.5859V21.2072H84.8273V16.9658Z" fill="black"/>
<path d="M89.069 16.9658H84.8276V21.2072H89.069V16.9658Z" fill="black"/>
<path d="M97.5519 16.9658H93.3105V21.2072H97.5519V16.9658Z" fill="black"/>
<path d="M106.034 16.9658H101.793V21.2072H106.034V16.9658Z" fill="black"/>
<path d="M110.276 16.9658H106.034V21.2072H110.276V16.9658Z" fill="black"/>
<path d="M114.517 16.9658H110.276V21.2072H114.517V16.9658Z" fill="black"/>
<path d="M123 16.9658H118.759V21.2072H123V16.9658Z" fill="black"/>
<path d="M4.24138 21.2068H0V25.4482H4.24138V21.2068Z" fill="black"/>
<path d="M29.6896 21.2068H25.4482V25.4482H29.6896V21.2068Z" fill="black"/>
<path d="M42.4137 21.2068H38.1724V25.4482H42.4137V21.2068Z" fill="black"/>
<path d="M59.3793 21.2068H55.1379V25.4482H59.3793V21.2068Z" fill="black"/>
<path d="M67.862 21.2068H63.6206V25.4482H67.862V21.2068Z" fill="black"/>
<path d="M80.5861 21.2068H76.3447V25.4482H80.5861V21.2068Z" fill="black"/>
<path d="M84.8276 21.2068H80.5862V25.4482H84.8276V21.2068Z" fill="black"/>
<path d="M89.069 21.2068H84.8276V25.4482H89.069V21.2068Z" fill="black"/>
<path d="M97.5517 21.2068H93.3103V25.4482H97.5517V21.2068Z" fill="black"/>
<path d="M123 21.2068H118.759V25.4482H123V21.2068Z" fill="black"/>
<path d="M4.24138 25.4482H0V29.6896H4.24138V25.4482Z" fill="black"/>
<path d="M8.48283 25.4482H4.24146V29.6896H8.48283V25.4482Z" fill="black"/>
<path d="M12.724 25.4482H8.48267V29.6896H12.724V25.4482Z" fill="black"/>
<path d="M16.9655 25.4482H12.7241V29.6896H16.9655V25.4482Z" fill="black"/>
<path d="M21.207 25.4482H16.9656V29.6896H21.207V25.4482Z" fill="black"/>
<path d="M25.4482 25.4482H21.2068V29.6896H25.4482V25.4482Z" fill="black"/>
<path d="M29.6896 25.4482H25.4482V29.6896H29.6896V25.4482Z" fill="black"/>
<path d="M38.1725 25.4482H33.9312V29.6896H38.1725V25.4482Z" fill="black"/>
<path d="M46.6552 25.4482H42.4138V29.6896H46.6552V25.4482Z" fill="black"/>
<path d="M55.1379 25.4482H50.8965V29.6896H55.1379V25.4482Z" fill="black"/>
<path d="M63.6208 25.4482H59.3794V29.6896H63.6208V25.4482Z" fill="black"/>
<path d="M72.1037 25.4482H67.8623V29.6896H72.1037V25.4482Z" fill="black"/>
<path d="M80.5861 25.4482H76.3447V29.6896H80.5861V25.4482Z" fill="black"/>
<path d="M89.069 25.4482H84.8276V29.6896H89.069V25.4482Z" fill="black"/>
<path d="M97.5517 25.4482H93.3103V29.6896H97.5517V25.4482Z" fill="black"/>
<path d="M101.793 25.4482H97.5518V29.6896H101.793V25.4482Z" fill="black"/>
<path d="M106.035 25.4482H101.793V29.6896H106.035V25.4482Z" fill="black"/>
<path d="M110.276 25.4482H106.034V29.6896H110.276V25.4482Z" fill="black"/>
<path d="M114.517 25.4482H110.276V29.6896H114.517V25.4482Z" fill="black"/>
<path d="M118.759 25.4482H114.517V29.6896H118.759V25.4482Z" fill="black"/>
<path d="M123 25.4482H118.759V29.6896H123V25.4482Z" fill="black"/>
<path d="M42.4137 29.6897H38.1724V33.9311H42.4137V29.6897Z" fill="black"/>
<path d="M46.6552 29.6897H42.4138V33.9311H46.6552V29.6897Z" fill="black"/>
<path d="M50.8967 29.6897H46.6553V33.9311H50.8967V29.6897Z" fill="black"/>
<path d="M63.6208 29.6897H59.3794V33.9311H63.6208V29.6897Z" fill="black"/>
<path d="M67.862 29.6897H63.6206V33.9311H67.862V29.6897Z" fill="black"/>
<path d="M72.1037 29.6895H67.8623V33.9308H72.1037V29.6895Z" fill="black"/>
<path d="M84.8276 29.6897H80.5862V33.9311H84.8276V29.6897Z" fill="black"/>
<path d="M89.069 29.6897H84.8276V33.9311H89.069V29.6897Z" fill="black"/>
<path d="M12.7243 33.9307H8.48291V38.172H12.7243V33.9307Z" fill="black"/>
<path d="M21.207 33.9307H16.9656V38.172H21.207V33.9307Z" fill="black"/>
<path d="M25.4484 33.9307H21.207V38.172H25.4484V33.9307Z" fill="black"/>
<path d="M29.6896 33.9307H25.4482V38.172H29.6896V33.9307Z" fill="black"/>
<path d="M38.1725 33.9307H33.9312V38.172H38.1725V33.9307Z" fill="black"/>
<path d="M42.4137 33.9307H38.1724V38.172H42.4137V33.9307Z" fill="black"/>
<path d="M46.6554 33.9307H42.4141V38.172H46.6554V33.9307Z" fill="black"/>
<path d="M55.1379 33.9307H50.8965V38.172H55.1379V33.9307Z" fill="black"/>
<path d="M72.1037 33.9307H67.8623V38.172H72.1037V33.9307Z" fill="black"/>
<path d="M89.069 33.9307H84.8276V38.172H89.069V33.9307Z" fill="black"/>
<path d="M93.3102 33.9307H89.0688V38.172H93.3102V33.9307Z" fill="black"/>
<path d="M110.276 33.9307H106.034V38.172H110.276V33.9307Z" fill="black"/>
<path d="M123 33.9307H118.759V38.172H123V33.9307Z" fill="black"/>
<path d="M25.4484 38.1729H21.207V42.4142H25.4484V38.1729Z" fill="black"/>
<path d="M33.9311 38.1729H29.6897V42.4142H33.9311V38.1729Z" fill="black"/>
<path d="M42.4137 38.1729H38.1724V42.4142H42.4137V38.1729Z" fill="black"/>
<path d="M59.3791 38.1729H55.1377V42.4142H59.3791V38.1729Z" fill="black"/>
<path d="M67.862 38.1729H63.6206V42.4142H67.862V38.1729Z" fill="black"/>
<path d="M84.8273 38.1729H80.5859V42.4142H84.8273V38.1729Z" fill="black"/>
<path d="M89.069 38.1729H84.8276V42.4142H89.069V38.1729Z" fill="black"/>
<path d="M93.3102 38.1729H89.0688V42.4142H93.3102V38.1729Z" fill="black"/>
<path d="M97.5519 38.1729H93.3105V42.4142H97.5519V38.1729Z" fill="black"/>
<path d="M106.034 38.1729H101.793V42.4142H106.034V38.1729Z" fill="black"/>
<path d="M123 38.1729H118.759V42.4142H123V38.1729Z" fill="black"/>
<path d="M4.24138 42.4141H0V46.6554H4.24138V42.4141Z" fill="black"/>
<path d="M8.48283 42.4141H4.24146V46.6554H8.48283V42.4141Z" fill="black"/>
<path d="M12.7243 42.4141H8.48291V46.6554H12.7243V42.4141Z" fill="black"/>
<path d="M16.9655 42.4141H12.7241V46.6554H16.9655V42.4141Z" fill="black"/>
<path d="M25.4484 42.4141H21.207V46.6554H25.4484V42.4141Z" fill="black"/>
<path d="M29.6896 42.4141H25.4482V46.6554H29.6896V42.4141Z" fill="black"/>
<path d="M33.9311 42.4141H29.6897V46.6554H33.9311V42.4141Z" fill="black"/>
<path d="M46.6554 42.4141H42.4141V46.6554H46.6554V42.4141Z" fill="black"/>
<path d="M50.8967 42.4141H46.6553V46.6554H50.8967V42.4141Z" fill="black"/>
<path d="M55.1379 42.4141H50.8965V46.6554H55.1379V42.4141Z" fill="black"/>
<path d="M59.3791 42.4141H55.1377V46.6554H59.3791V42.4141Z" fill="black"/>
<path d="M76.3449 42.4141H72.1035V46.6554H76.3449V42.4141Z" fill="black"/>
<path d="M84.8273 42.4141H80.5859V46.6554H84.8273V42.4141Z" fill="black"/>
<path d="M89.069 42.4141H84.8276V46.6554H89.069V42.4141Z" fill="black"/>
<path d="M93.3102 42.4141H89.0688V46.6554H93.3102V42.4141Z" fill="black"/>
<path d="M97.5519 42.4141H93.3105V46.6554H97.5519V42.4141Z" fill="black"/>
<path d="M114.517 42.4141H110.276V46.6554H114.517V42.4141Z" fill="black"/>
<path d="M123 42.4141H118.759V46.6554H123V42.4141Z" fill="black"/>
<path d="M8.48283 46.6553H4.24146V50.8967H8.48283V46.6553Z" fill="black"/>
<path d="M25.4482 46.6553H21.2068V50.8967H25.4482V46.6553Z" fill="black"/>
<path d="M33.9311 46.6553H29.6897V50.8967H33.9311V46.6553Z" fill="black"/>
<path d="M38.1725 46.6553H33.9312V50.8967H38.1725V46.6553Z" fill="black"/>
<path d="M42.4137 46.6553H38.1724V50.8967H42.4137V46.6553Z" fill="black"/>
<path d="M46.6552 46.6553H42.4138V50.8967H46.6552V46.6553Z" fill="black"/>
<path d="M59.3793 46.6553H55.1379V50.8967H59.3793V46.6553Z" fill="black"/>
<path d="M63.6208 46.6553H59.3794V50.8967H63.6208V46.6553Z" fill="black"/>
<path d="M72.1037 46.6553H67.8623V50.8967H72.1037V46.6553Z" fill="black"/>
<path d="M89.069 46.6553H84.8276V50.8967H89.069V46.6553Z" fill="black"/>
<path d="M97.5517 46.6553H93.3103V50.8967H97.5517V46.6553Z" fill="black"/>
<path d="M101.793 46.6553H97.5518V50.8967H101.793V46.6553Z" fill="black"/>
<path d="M8.48283 50.8965H4.24146V55.1379H8.48283V50.8965Z" fill="black"/>
<path d="M21.207 50.8965H16.9656V55.1379H21.207V50.8965Z" fill="black"/>
<path d="M25.4482 50.8965H21.2068V55.1379H25.4482V50.8965Z" fill="black"/>
<path d="M29.6896 50.8965H25.4482V55.1379H29.6896V50.8965Z" fill="black"/>
<path d="M42.4137 50.8965H38.1724V55.1379H42.4137V50.8965Z" fill="black"/>
<path d="M59.3793 50.8965H55.1379V55.1379H59.3793V50.8965Z" fill="black"/>
<path d="M84.8276 50.8965H80.5862V55.1379H84.8276V50.8965Z" fill="black"/>
<path d="M97.5517 50.8965H93.3103V55.1379H97.5517V50.8965Z" fill="black"/>
<path d="M106.035 50.8965H101.793V55.1379H106.035V50.8965Z" fill="black"/>
<path d="M123 50.8965H118.759V55.1379H123V50.8965Z" fill="black"/>
<path d="M12.724 55.1379H8.48267V59.3793H12.724V55.1379Z" fill="black"/>
<path d="M16.9655 55.1379H12.7241V59.3793H16.9655V55.1379Z" fill="black"/>
<path d="M25.4482 55.1379H21.2068V59.3793H25.4482V55.1379Z" fill="black"/>
<path d="M33.9311 55.1379H29.6897V59.3793H33.9311V55.1379Z" fill="black"/>
<path d="M38.1725 55.1379H33.9312V59.3793H38.1725V55.1379Z" fill="black"/>
<path d="M46.6552 55.1379H42.4138V59.3793H46.6552V55.1379Z" fill="black"/>
<path d="M55.1379 55.1379H50.8965V59.3793H55.1379V55.1379Z" fill="black"/>
<path d="M67.862 55.1379H63.6206V59.3793H67.862V55.1379Z" fill="black"/>
<path d="M76.3449 55.1379H72.1035V59.3793H76.3449V55.1379Z" fill="black"/>
<path d="M89.069 55.1379H84.8276V59.3793H89.069V55.1379Z" fill="black"/>
<path d="M97.5517 55.1379H93.3103V59.3793H97.5517V55.1379Z" fill="black"/>
<path d="M101.793 55.1379H97.5518V59.3793H101.793V55.1379Z" fill="black"/>
<path d="M118.759 55.1379H114.517V59.3793H118.759V55.1379Z" fill="black"/>
<path d="M4.24138 59.3789H0V63.6203H4.24138V59.3789Z" fill="black"/>
<path d="M8.48283 59.3789H4.24146V63.6203H8.48283V59.3789Z" fill="black"/>
<path d="M16.9655 59.3789H12.7241V63.6203H16.9655V59.3789Z" fill="black"/>
<path d="M25.4484 59.3789H21.207V63.6203H25.4484V59.3789Z" fill="black"/>
<path d="M29.6896 59.3789H25.4482V63.6203H29.6896V59.3789Z" fill="black"/>
<path d="M33.9311 59.3789H29.6897V63.6203H33.9311V59.3789Z" fill="black"/>
<path d="M38.1725 59.3789H33.9312V63.6203H38.1725V59.3789Z" fill="black"/>
<path d="M42.4137 59.3789H38.1724V63.6203H42.4137V59.3789Z" fill="black"/>
<path d="M50.8967 59.3789H46.6553V63.6203H50.8967V59.3789Z" fill="black"/>
<path d="M63.6208 59.3789H59.3794V63.6203H63.6208V59.3789Z" fill="black"/>
<path d="M67.862 59.3789H63.6206V63.6203H67.862V59.3789Z" fill="black"/>
<path d="M80.5861 59.3789H76.3447V63.6203H80.5861V59.3789Z" fill="black"/>
<path d="M84.8273 59.3789H80.5859V63.6203H84.8273V59.3789Z" fill="black"/>
<path d="M89.069 59.3789H84.8276V63.6203H89.069V59.3789Z" fill="black"/>
<path d="M93.3102 59.3789H89.0688V63.6203H93.3102V59.3789Z" fill="black"/>
<path d="M97.5519 59.3789H93.3105V63.6203H97.5519V59.3789Z" fill="black"/>
<path d="M101.793 59.3789H97.5518V63.6203H101.793V59.3789Z" fill="black"/>
<path d="M8.48283 63.6211H4.24146V67.8625H8.48283V63.6211Z" fill="black"/>
<path d="M12.7243 63.6211H8.48291V67.8625H12.7243V63.6211Z" fill="black"/>
<path d="M21.207 63.6211H16.9656V67.8625H21.207V63.6211Z" fill="black"/>
<path d="M42.4137 63.6211H38.1724V67.8625H42.4137V63.6211Z" fill="black"/>
<path d="M76.3449 63.6211H72.1035V67.8625H76.3449V63.6211Z" fill="black"/>
<path d="M80.5861 63.6211H76.3447V67.8625H80.5861V63.6211Z" fill="black"/>
<path d="M97.5519 63.6211H93.3105V67.8625H97.5519V63.6211Z" fill="black"/>
<path d="M110.276 63.6211H106.034V67.8625H110.276V63.6211Z" fill="black"/>
<path d="M114.517 63.6211H110.276V67.8625H114.517V63.6211Z" fill="black"/>
<path d="M118.758 63.6211H114.517V67.8625H118.758V63.6211Z" fill="black"/>
<path d="M123 63.6211H118.759V67.8625H123V63.6211Z" fill="black"/>
<path d="M8.48283 67.8623H4.24146V72.1037H8.48283V67.8623Z" fill="black"/>
<path d="M12.7243 67.8623H8.48291V72.1037H12.7243V67.8623Z" fill="black"/>
<path d="M16.9655 67.8623H12.7241V72.1037H16.9655V67.8623Z" fill="black"/>
<path d="M29.6896 67.8623H25.4482V72.1037H29.6896V67.8623Z" fill="black"/>
<path d="M38.1725 67.8623H33.9312V72.1037H38.1725V67.8623Z" fill="black"/>
<path d="M42.4137 67.8623H38.1724V72.1037H42.4137V67.8623Z" fill="black"/>
<path d="M50.8967 67.8623H46.6553V72.1037H50.8967V67.8623Z" fill="black"/>
<path d="M55.1379 67.8623H50.8965V72.1037H55.1379V67.8623Z" fill="black"/>
<path d="M67.862 67.8623H63.6206V72.1037H67.862V67.8623Z" fill="black"/>
<path d="M89.069 67.8623H84.8276V72.1037H89.069V67.8623Z" fill="black"/>
<path d="M97.5519 67.8623H93.3105V72.1037H97.5519V67.8623Z" fill="black"/>
<path d="M106.034 67.8623H101.793V72.1037H106.034V67.8623Z" fill="black"/>
<path d="M114.517 67.8623H110.276V72.1037H114.517V67.8623Z" fill="black"/>
<path d="M118.758 67.8623H114.517V72.1037H118.758V67.8623Z" fill="black"/>
<path d="M123 67.8623H118.759V72.1037H123V67.8623Z" fill="black"/>
<path d="M12.724 72.1035H8.48267V76.3449H12.724V72.1035Z" fill="black"/>
<path d="M16.9655 72.1035H12.7241V76.3449H16.9655V72.1035Z" fill="black"/>
<path d="M21.207 72.1035H16.9656V76.3449H21.207V72.1035Z" fill="black"/>
<path d="M38.1725 72.1035H33.9312V76.3449H38.1725V72.1035Z" fill="black"/>
<path d="M42.4137 72.1035H38.1724V76.3449H42.4137V72.1035Z" fill="black"/>
<path d="M63.6208 72.1035H59.3794V76.3449H63.6208V72.1035Z" fill="black"/>
<path d="M72.1037 72.1035H67.8623V76.3449H72.1037V72.1035Z" fill="black"/>
<path d="M80.5861 72.1035H76.3447V76.3449H80.5861V72.1035Z" fill="black"/>
<path d="M84.8276 72.1035H80.5862V76.3449H84.8276V72.1035Z" fill="black"/>
<path d="M93.3102 72.1035H89.0688V76.3449H93.3102V72.1035Z" fill="black"/>
<path d="M97.5517 72.1035H93.3103V76.3449H97.5517V72.1035Z" fill="black"/>
<path d="M118.759 72.1035H114.517V76.3449H118.759V72.1035Z" fill="black"/>
<path d="M4.24138 76.3447H0V80.5861H4.24138V76.3447Z" fill="black"/>
<path d="M21.207 76.3447H16.9656V80.5861H21.207V76.3447Z" fill="black"/>
<path d="M29.6896 76.3447H25.4482V80.5861H29.6896V76.3447Z" fill="black"/>
<path d="M33.9311 76.3447H29.6897V80.5861H33.9311V76.3447Z" fill="black"/>
<path d="M38.1725 76.3447H33.9312V80.5861H38.1725V76.3447Z" fill="black"/>
<path d="M46.6552 76.3447H42.4138V80.5861H46.6552V76.3447Z" fill="black"/>
<path d="M59.3793 76.3447H55.1379V80.5861H59.3793V76.3447Z" fill="black"/>
<path d="M72.1037 76.3447H67.8623V80.5861H72.1037V76.3447Z" fill="black"/>
<path d="M89.069 76.3447H84.8276V80.5861H89.069V76.3447Z" fill="black"/>
<path d="M97.5517 76.3447H93.3103V80.5861H97.5517V76.3447Z" fill="black"/>
<path d="M118.759 76.3447H114.517V80.5861H118.759V76.3447Z" fill="black"/>
<path d="M123 76.3447H118.759V80.5861H123V76.3447Z" fill="black"/>
<path d="M8.48283 80.5859H4.24146V84.8273H8.48283V80.5859Z" fill="black"/>
<path d="M12.7243 80.5859H8.48291V84.8273H12.7243V80.5859Z" fill="black"/>
<path d="M16.9655 80.5859H12.7241V84.8273H16.9655V80.5859Z" fill="black"/>
<path d="M21.207 80.5859H16.9656V84.8273H21.207V80.5859Z" fill="black"/>
<path d="M25.4484 80.5859H21.207V84.8273H25.4484V80.5859Z" fill="black"/>
<path d="M33.9311 80.5859H29.6897V84.8273H33.9311V80.5859Z" fill="black"/>
<path d="M38.1725 80.5859H33.9312V84.8273H38.1725V80.5859Z" fill="black"/>
<path d="M46.6554 80.5859H42.4141V84.8273H46.6554V80.5859Z" fill="black"/>
<path d="M55.1379 80.5859H50.8965V84.8273H55.1379V80.5859Z" fill="black"/>
<path d="M72.1037 80.5859H67.8623V84.8273H72.1037V80.5859Z" fill="black"/>
<path d="M76.3449 80.5859H72.1035V84.8273H76.3449V80.5859Z" fill="black"/>
<path d="M84.8273 80.5859H80.5859V84.8273H84.8273V80.5859Z" fill="black"/>
<path d="M97.5519 80.5859H93.3105V84.8273H97.5519V80.5859Z" fill="black"/>
<path d="M114.517 80.5859H110.276V84.8273H114.517V80.5859Z" fill="black"/>
<path d="M118.758 80.5859H114.517V84.8273H118.758V80.5859Z" fill="black"/>
<path d="M123 80.5859H118.759V84.8273H123V80.5859Z" fill="black"/>
<path d="M4.24138 84.8271H0V89.0685H4.24138V84.8271Z" fill="black"/>
<path d="M12.7243 84.8271H8.48291V89.0685H12.7243V84.8271Z" fill="black"/>
<path d="M21.207 84.8271H16.9656V89.0685H21.207V84.8271Z" fill="black"/>
<path d="M29.6896 84.8271H25.4482V89.0685H29.6896V84.8271Z" fill="black"/>
<path d="M33.9311 84.8271H29.6897V89.0685H33.9311V84.8271Z" fill="black"/>
<path d="M38.1725 84.8271H33.9312V89.0685H38.1725V84.8271Z" fill="black"/>
<path d="M67.862 84.8271H63.6206V89.0685H67.862V84.8271Z" fill="black"/>
<path d="M76.3449 84.8271H72.1035V89.0685H76.3449V84.8271Z" fill="black"/>
<path d="M80.5861 84.8271H76.3447V89.0685H80.5861V84.8271Z" fill="black"/>
<path d="M89.069 84.8271H84.8276V89.0685H89.069V84.8271Z" fill="black"/>
<path d="M93.3102 84.8271H89.0688V89.0685H93.3102V84.8271Z" fill="black"/>
<path d="M97.5519 84.8271H93.3105V89.0685H97.5519V84.8271Z" fill="black"/>
<path d="M101.793 84.8271H97.5518V89.0685H101.793V84.8271Z" fill="black"/>
<path d="M106.034 84.8271H101.793V89.0685H106.034V84.8271Z" fill="black"/>
<path d="M110.276 84.8271H106.034V89.0685H110.276V84.8271Z" fill="black"/>
<path d="M38.1725 89.0693H33.9312V93.3107H38.1725V89.0693Z" fill="black"/>
<path d="M46.6554 89.0693H42.4141V93.3107H46.6554V89.0693Z" fill="black"/>
<path d="M50.8967 89.0693H46.6553V93.3107H50.8967V89.0693Z" fill="black"/>
<path d="M55.1379 89.0693H50.8965V93.3107H55.1379V89.0693Z" fill="black"/>
<path d="M59.3791 89.0693H55.1377V93.3107H59.3791V89.0693Z" fill="black"/>
<path d="M63.6208 89.0693H59.3794V93.3107H63.6208V89.0693Z" fill="black"/>
<path d="M76.3449 89.0693H72.1035V93.3107H76.3449V89.0693Z" fill="black"/>
<path d="M89.069 89.0693H84.8276V93.3107H89.069V89.0693Z" fill="black"/>
<path d="M106.034 89.0693H101.793V93.3107H106.034V89.0693Z" fill="black"/>
<path d="M123 89.0693H118.759V93.3107H123V89.0693Z" fill="black"/>
<path d="M4.24138 93.3103H0V97.5517H4.24138V93.3103Z" fill="black"/>
<path d="M8.48283 93.3103H4.24146V97.5517H8.48283V93.3103Z" fill="black"/>
<path d="M12.724 93.3103H8.48267V97.5517H12.724V93.3103Z" fill="black"/>
<path d="M16.9655 93.3103H12.7241V97.5517H16.9655V93.3103Z" fill="black"/>
<path d="M21.207 93.3103H16.9656V97.5517H21.207V93.3103Z" fill="black"/>
<path d="M25.4482 93.3103H21.2068V97.5517H25.4482V93.3103Z" fill="black"/>
<path d="M29.6896 93.3103H25.4482V97.5517H29.6896V93.3103Z" fill="black"/>
<path d="M42.4137 93.3103H38.1724V97.5517H42.4137V93.3103Z" fill="black"/>
<path d="M46.6552 93.3103H42.4138V97.5517H46.6552V93.3103Z" fill="black"/>
<path d="M50.8967 93.3103H46.6553V97.5517H50.8967V93.3103Z" fill="black"/>
<path d="M55.1379 93.3103H50.8965V97.5517H55.1379V93.3103Z" fill="black"/>
<path d="M63.6208 93.3103H59.3794V97.5517H63.6208V93.3103Z" fill="black"/>
<path d="M67.862 93.3103H63.6206V97.5517H67.862V93.3103Z" fill="black"/>
<path d="M72.1037 93.3105H67.8623V97.5519H72.1037V93.3105Z" fill="black"/>
<path d="M76.3449 93.3103H72.1035V97.5517H76.3449V93.3103Z" fill="black"/>
<path d="M80.5861 93.3103H76.3447V97.5517H80.5861V93.3103Z" fill="black"/>
<path d="M84.8276 93.3103H80.5862V97.5517H84.8276V93.3103Z" fill="black"/>
<path d="M89.069 93.3103H84.8276V97.5517H89.069V93.3103Z" fill="black"/>
<path d="M97.5517 93.3103H93.3103V97.5517H97.5517V93.3103Z" fill="black"/>
<path d="M106.035 93.3103H101.793V97.5517H106.035V93.3103Z" fill="black"/>
<path d="M110.276 93.3103H106.034V97.5517H110.276V93.3103Z" fill="black"/>
<path d="M4.24138 97.5518H0V101.793H4.24138V97.5518Z" fill="black"/>
<path d="M29.6896 97.5518H25.4482V101.793H29.6896V97.5518Z" fill="black"/>
<path d="M38.1725 97.5518H33.9312V101.793H38.1725V97.5518Z" fill="black"/>
<path d="M50.8967 97.5518H46.6553V101.793H50.8967V97.5518Z" fill="black"/>
<path d="M55.1379 97.5518H50.8965V101.793H55.1379V97.5518Z" fill="black"/>
<path d="M76.3449 97.5518H72.1035V101.793H76.3449V97.5518Z" fill="black"/>
<path d="M80.5861 97.5518H76.3447V101.793H80.5861V97.5518Z" fill="black"/>
<path d="M89.069 97.5518H84.8276V101.793H89.069V97.5518Z" fill="black"/>
<path d="M106.035 97.5518H101.793V101.793H106.035V97.5518Z" fill="black"/>
<path d="M118.759 97.5518H114.517V101.793H118.759V97.5518Z" fill="black"/>
<path d="M123 97.5518H118.759V101.793H123V97.5518Z" fill="black"/>
<path d="M4.24138 101.793H0V106.035H4.24138V101.793Z" fill="black"/>
<path d="M12.724 101.793H8.48267V106.035H12.724V101.793Z" fill="black"/>
<path d="M16.9655 101.793H12.7241V106.035H16.9655V101.793Z" fill="black"/>
<path d="M21.207 101.793H16.9656V106.035H21.207V101.793Z" fill="black"/>
<path d="M29.6896 101.793H25.4482V106.035H29.6896V101.793Z" fill="black"/>
<path d="M38.1725 101.793H33.9312V106.035H38.1725V101.793Z" fill="black"/>
<path d="M46.6552 101.793H42.4138V106.035H46.6552V101.793Z" fill="black"/>
<path d="M63.6208 101.793H59.3794V106.035H63.6208V101.793Z" fill="black"/>
<path d="M76.3449 101.793H72.1035V106.035H76.3449V101.793Z" fill="black"/>
<path d="M84.8276 101.793H80.5862V106.035H84.8276V101.793Z" fill="black"/>
<path d="M89.069 101.793H84.8276V106.035H89.069V101.793Z" fill="black"/>
<path d="M93.3102 101.793H89.0688V106.035H93.3102V101.793Z" fill="black"/>
<path d="M97.5517 101.793H93.3103V106.035H97.5517V101.793Z" fill="black"/>
<path d="M101.793 101.793H97.5518V106.035H101.793V101.793Z" fill="black"/>
<path d="M106.035 101.793H101.793V106.035H106.035V101.793Z" fill="black"/>
<path d="M114.517 101.793H110.276V106.035H114.517V101.793Z" fill="black"/>
<path d="M118.759 101.793H114.517V106.035H118.759V101.793Z" fill="black"/>
<path d="M123 101.793H118.759V106.035H123V101.793Z" fill="black"/>
<path d="M4.24138 106.034H0V110.276H4.24138V106.034Z" fill="black"/>
<path d="M12.7243 106.034H8.48291V110.276H12.7243V106.034Z" fill="black"/>
<path d="M16.9655 106.034H12.7241V110.276H16.9655V106.034Z" fill="black"/>
<path d="M21.207 106.034H16.9656V110.276H21.207V106.034Z" fill="black"/>
<path d="M29.6896 106.034H25.4482V110.276H29.6896V106.034Z" fill="black"/>
<path d="M42.4137 106.034H38.1724V110.276H42.4137V106.034Z" fill="black"/>
<path d="M50.8967 106.034H46.6553V110.276H50.8967V106.034Z" fill="black"/>
<path d="M55.1379 106.034H50.8965V110.276H55.1379V106.034Z" fill="black"/>
<path d="M63.6208 106.034H59.3794V110.276H63.6208V106.034Z" fill="black"/>
<path d="M76.3449 106.034H72.1035V110.276H76.3449V106.034Z" fill="black"/>
<path d="M84.8273 106.034H80.5859V110.276H84.8273V106.034Z" fill="black"/>
<path d="M89.069 106.034H84.8276V110.276H89.069V106.034Z" fill="black"/>
<path d="M93.3102 106.034H89.0688V110.276H93.3102V106.034Z" fill="black"/>
<path d="M97.5519 106.034H93.3105V110.276H97.5519V106.034Z" fill="black"/>
<path d="M101.793 106.034H97.5518V110.276H101.793V106.034Z" fill="black"/>
<path d="M4.24138 110.275H0V114.517H4.24138V110.275Z" fill="black"/>
<path d="M12.7243 110.275H8.48291V114.517H12.7243V110.275Z" fill="black"/>
<path d="M16.9655 110.275H12.7241V114.517H16.9655V110.275Z" fill="black"/>
<path d="M21.207 110.275H16.9656V114.517H21.207V110.275Z" fill="black"/>
<path d="M29.6896 110.275H25.4482V114.517H29.6896V110.275Z" fill="black"/>
<path d="M38.1725 110.275H33.9312V114.517H38.1725V110.275Z" fill="black"/>
<path d="M46.6554 110.275H42.4141V114.517H46.6554V110.275Z" fill="black"/>
<path d="M50.8967 110.275H46.6553V114.517H50.8967V110.275Z" fill="black"/>
<path d="M55.1379 110.275H50.8965V114.517H55.1379V110.275Z" fill="black"/>
<path d="M59.3791 110.275H55.1377V114.517H59.3791V110.275Z" fill="black"/>
<path d="M67.862 110.275H63.6206V114.517H67.862V110.275Z" fill="black"/>
<path d="M89.069 110.275H84.8276V114.517H89.069V110.275Z" fill="black"/>
<path d="M101.793 110.275H97.5518V114.517H101.793V110.275Z" fill="black"/>
<path d="M106.034 110.275H101.793V114.517H106.034V110.275Z" fill="black"/>
<path d="M123 110.275H118.759V114.517H123V110.275Z" fill="black"/>
<path d="M4.24138 114.518H0V118.759H4.24138V114.518Z" fill="black"/>
<path d="M29.6896 114.518H25.4482V118.759H29.6896V114.518Z" fill="black"/>
<path d="M42.4137 114.518H38.1724V118.759H42.4137V114.518Z" fill="black"/>
<path d="M46.6554 114.518H42.4141V118.759H46.6554V114.518Z" fill="black"/>
<path d="M50.8967 114.518H46.6553V118.759H50.8967V114.518Z" fill="black"/>
<path d="M72.1037 114.518H67.8623V118.759H72.1037V114.518Z" fill="black"/>
<path d="M76.3449 114.518H72.1035V118.759H76.3449V114.518Z" fill="black"/>
<path d="M106.034 114.518H101.793V118.759H106.034V114.518Z" fill="black"/>
<path d="M114.517 114.518H110.276V118.759H114.517V114.518Z" fill="black"/>
<path d="M123 114.518H118.759V118.759H123V114.518Z" fill="black"/>
<path d="M4.24138 118.759H0V123H4.24138V118.759Z" fill="black"/>
<path d="M8.48283 118.759H4.24146V123H8.48283V118.759Z" fill="black"/>
<path d="M12.724 118.759H8.48267V123H12.724V118.759Z" fill="black"/>
<path d="M16.9655 118.759H12.7241V123H16.9655V118.759Z" fill="black"/>
<path d="M21.207 118.759H16.9656V123H21.207V118.759Z" fill="black"/>
<path d="M25.4482 118.759H21.2068V123H25.4482V118.759Z" fill="black"/>
<path d="M29.6896 118.759H25.4482V123H29.6896V118.759Z" fill="black"/>
<path d="M42.4137 118.759H38.1724V123H42.4137V118.759Z" fill="black"/>
<path d="M55.1379 118.759H50.8965V123H55.1379V118.759Z" fill="black"/>
<path d="M59.3793 118.759H55.1379V123H59.3793V118.759Z" fill="black"/>
<path d="M63.6208 118.759H59.3794V123H63.6208V118.759Z" fill="black"/>
<path d="M72.1037 118.759H67.8623V123H72.1037V118.759Z" fill="black"/>
<path d="M76.3449 118.759H72.1035V123H76.3449V118.759Z" fill="black"/>
<path d="M80.5861 118.759H76.3447V123H80.5861V118.759Z" fill="black"/>
<path d="M84.8276 118.759H80.5862V123H84.8276V118.759Z" fill="black"/>
<path d="M89.069 118.759H84.8276V123H89.069V118.759Z" fill="black"/>
<path d="M93.3102 118.759H89.0688V123H93.3102V118.759Z" fill="black"/>
<path d="M101.793 118.759H97.5518V123H101.793V118.759Z" fill="black"/>
<path d="M106.035 118.759H101.793V123H106.035V118.759Z" fill="black"/>
<path d="M110.276 118.759H106.034V123H110.276V118.759Z" fill="black"/>
<path d="M118.759 118.759H114.517V123H118.759V118.759Z" fill="black"/>
<path d="M123 118.759H118.759V123H123V118.759Z" fill="black"/>
</g>
<defs>
<clipPath id="clip0_2365_1352">
<rect width="123" height="123" fill="white"/>
</clipPath>
</defs>
</svg>
